<svg width="68" height="68" viewBox="0 0 68 68" fill="none" xmlns="http://www.w3.org/2000/svg">
<rect width="68" height="68" fill="#E5E5E5"/>
<g clip-path="url(#clip0_20005153_3239)">
<rect width="1920" height="6069" transform="translate(-1139 -5406)" fill="white"/>
<g filter="url(#filter0_d_20005153_3239)">
<rect x="-1138" y="-101" width="1920" height="518" fill="#F3F6FF"/>
</g>
<g filter="url(#filter1_d_20005153_3239)">
<path d="M54.9527 51.0012C63.3487 40.4344 56.9829 24.9878 43.2046 24.2501C42.5147 24.1855 41.7434 24.2516 41.0788 24.2932C41.2031 33.3394 36.9074 43.1828 29.517 45.6746C22.8475 47.8879 19.1833 41.4522 21.9357 35.9986C25.2323 29.5231 31.0387 24.1482 38.1035 22.1797C37.5381 16.4844 34.7599 11.4125 28.6185 9.69453C18.2678 6.8204 7.49364 16.3681 5.98841 26.127C5.89565 27.1567 4.30272 27.0767 4.39548 26.0469C4.98732 12.9139 20.7395 2.55212 32.9628 8.5787C37.6881 10.96 40.2277 15.975 40.8996 21.6457C48.3233 20.7146 55.415 25.014 59.2418 31.1879C63.6406 38.3502 61.6002 46.328 56.6096 52.2987C55.827 53.264 54.2765 51.9415 54.9527 51.0012ZM27.7754 32.1845C25.8343 34.4256 23.6994 37.2717 23.4212 40.3609C23.1176 43.3438 27.1813 43.4134 28.9117 43.1254C31.0685 42.7391 32.6338 40.809 33.798 39.0835C36.4208 35.4527 38.1637 30.0083 38.2824 24.8272C34.2016 26.1062 30.631 29.0599 27.7754 32.1845Z" fill="#6366F1"/>
<path d="M52.4065 57.7765C51.7004 54.8027 51.1822 51.6734 51.2474 48.6335C51.2897 47.3915 53.0144 47.553 53.0787 48.7707C53.2071 51.2057 53.8937 53.6239 54.5551 55.9358C55.9152 55.5095 57.382 55.0586 58.717 54.526C59.7323 54.0674 61.1543 52.9546 62.3714 53.3456C62.9801 53.541 63.1061 54.072 63.0189 54.6524C62.7887 56.05 60.5506 56.5671 59.4288 57.0504C57.5859 57.8123 55.7995 58.3369 53.8811 58.7802C53.242 58.9278 52.5578 58.4137 52.4065 57.7765Z" fill="#6366F1"/>
</g>
</g>
<defs>
<filter id="filter0_d_20005153_3239" x="-1142" y="-101" width="1928" height="526" filterUnits="userSpaceOnUse" color-interpolation-filters="sRGB">
<feFlood flood-opacity="0" result="BackgroundImageFix"/>
<feColorMatrix in="SourceAlpha" type="matrix" values="0 0 0 0 0 0 0 0 0 0 0 0 0 0 0 0 0 0 127 0" result="hardAlpha"/>
<feOffset dy="4"/>
<feGaussianBlur stdDeviation="2"/>
<feComposite in2="hardAlpha" operator="out"/>
<feColorMatrix type="matrix" values="0 0 0 0 0 0 0 0 0 0 0 0 0 0 0 0 0 0 0.25 0"/>
<feBlend mode="normal" in2="BackgroundImageFix" result="effect1_dropShadow_20005153_3239"/>
<feBlend mode="normal" in="SourceGraphic" in2="effect1_dropShadow_20005153_3239" result="shape"/>
</filter>
<filter id="filter1_d_20005153_3239" x="-3" y="0" width="73" height="76" filterUnits="userSpaceOnUse" color-interpolation-filters="sRGB">
<feFlood flood-opacity="0" result="BackgroundImageFix"/>
<feColorMatrix in="SourceAlpha" type="matrix" values="0 0 0 0 0 0 0 0 0 0 0 0 0 0 0 0 0 0 127 0" result="hardAlpha"/>
<feOffset dy="4"/>
<feGaussianBlur stdDeviation="2"/>
<feComposite in2="hardAlpha" operator="out"/>
<feColorMatrix type="matrix" values="0 0 0 0 0 0 0 0 0 0 0 0 0 0 0 0 0 0 0.25 0"/>
<feBlend mode="normal" in2="BackgroundImageFix" result="effect1_dropShadow_20005153_3239"/>
<feBlend mode="normal" in="SourceGraphic" in2="effect1_dropShadow_20005153_3239" result="shape"/>
</filter>
<clipPath id="clip0_20005153_3239">
<rect width="1920" height="6069" fill="white" transform="translate(-1139 -5406)"/>
</clipPath>
</defs>
</svg>
